<svg xmlns="http://www.w3.org/2000/svg" data-name="Слой 1" viewBox="0 0 66.87 493.45"><path d="M66.38 116.23c-.11-4.16-.31-8.32-.54-12.48-.2-3.6-.6-7.19-.76-10.79-.24-5.18-.61-10.34-1.21-15.48-.53-4.55-.93-9.11-1.39-13.66-.64-6.31-1.64-12.56-2.58-18.82-.61-4.11-1.56-8.17-2.41-12.24-.35-1.67-.65-3.35-1.26-4.96-.06-.41-.07-.84-.18-1.23-1.42-4.79-2.74-9.62-5.16-14.04-1.11-2.02-2.19-4.07-3.6-5.91-.48-1.08-1.48-1.67-2.3-2.43-.11-.37-.41-.51-.74-.62-.61-.5-1.12-1.12-1.9-1.38-.59-.51-1.22-.93-2-1.08-1.79-.7-3.61-1.24-5.58-1.07-1.04.09-2.1.01-3.15.02-.45 0-.92-.06-1.34.19-.39.03-.79 0-1.12.29-1.02.16-1.97.5-2.83 1.09-.65.07-1.12.47-1.58.88-.97.48-1.75 1.2-2.53 1.94-.27.07-.44.25-.56.5-.64.57-1.4 1.05-1.69 1.93-1.24 1.6-2.48 3.19-3.35 5.03-.33.3-.44.7-.54 1.11q-.09.165-.15.33c-.49 1.06-1.04 2.11-1.4 3.21-1.04 3.15-2.11 6.29-3.11 9.46-1.07 3.4-1.85 6.86-2.56 10.34-.36 1.76-.88 3.49-1.13 5.27-.49 3.43-1.01 6.85-1.49 10.28-.29 2.06-.71 4.1-.71 6.19-.11.54-.23 1.08-.31 1.63-.52 3.47-.95 6.96-1.25 10.46-.34 3.96-.76 7.91-1.11 11.87-.24 2.77-.33 5.54-.63 8.3C1.41 98 1.2 105.68.82 113.34c-.17 3.33-.21 6.66-.35 9.98-.19 4.48-.48 8.96-.46 13.44.04 11.57-.2 23.13.23 34.7.11 3.05.2 6.1.36 9.15.1 1.94.14 3.88.26 5.82.49 7.34 1.34 14.64 2.02 21.97.16 1.69.17 3.41.7 5.06-.07 1.31.24 2.58.42 3.85.48 3.38 1.08 6.75 1.59 10.13 1.05 6.94 2.04 13.9 3.14 20.84.78 4.93 1.56 9.86 2.29 14.8.67 4.53 1.05 9.08 1.55 13.63.91 8.28 1.29 16.59 1.71 24.91.14 2.77.27 5.54.41 8.31-.02.51-.06 1.02-.04 1.52.29 11.19.57 22.38.88 33.58.1 3.56.1 7.12.24 10.68.19 4.76.25 9.53.64 14.28.26 3.14.18 6.29.53 9.42.32 2.94.6 5.89.95 8.83.39 3.26.87 6.5 1.52 9.72.19 2.12.74 4.18 1.17 6.26 1.32 6.39 3.15 12.64 5.23 18.81.25.74.39 1.52.84 2.19.9 2.62 1.82 5.24 3.08 7.72 1.76 3.47 3.11 7.11 4.75 10.63 2.1 4.49 3.75 9.15 4.41 14.1.02.54.07 1.07.04 1.6-.04.83-.17.88-1.09.58-.04-.52-.22-.98-.59-1.36-1.07-2.55-3.28-3.82-5.6-4.96-.64-.32-1.4-.37-1.98-.83-.19-.3-.52-.37-.82-.44-2.02-.45-3.99-.41-5.85.64-.63.3-1.38.33-1.9.85-.89.6-1.82 1.15-2.23 2.23-.6.6-1.01 1.3-1.11 2.15-.87 1.82-1.27 3.76-1.33 5.77-.12 3.97.71 7.82 1.65 11.65.84 3.4 2.45 6.48 4 9.59 1.4 2.79 3.26 5.17 5.91 6.85 2.3 1.47 4.72 2.09 7.33.74 2.09-.59 3.4-2.19 4.48-3.88.72-1.14 1.23-2.47 1.6-3.81.57-2.09 1.19-4.16 1.72-6.26.57-2.28.98-4.59 1.12-6.94.52-2.19.84-4.41.84-6.66.32-.79.27-1.61.27-2.43.25-.42.22-.89.28-1.35.51-3.63.61-7.29.93-10.93.46-5.16.92-10.32 1.35-15.49.28-3.37.35-6.75.72-10.11.23-2.07.38-4.15.51-6.22.24-3.97.4-7.95.65-11.92.49-7.67 1.06-15.33 1.38-23 .39-9.43.75-18.87.88-28.31.07-5.51.1-11.02.28-16.52.29-9.25.17-18.51.66-27.76.22-4.15.26-8.33.38-12.49.07-2.31.28-4.62.4-6.92.15-2.91.54-5.8.46-8.72.09-.38.12-.77.14-1.16.17-1.45.35-2.89.47-4.35.61-7.28 1.52-14.52 2.51-21.75.83-6.04 1.67-12.08 2.84-18.07.14-.73.24-1.46.16-2.2.22-.27.21-.6.26-.92.49-3.34.91-6.69 1.5-10.01 1.12-6.29 1.61-12.66 2.41-18.99.31-2.47.38-4.98.58-7.46.31-3.82.76-7.64.93-11.47.32-7.3.55-14.61.71-21.92.13-5.65.15-11.29.13-16.94-.03-10.51-.2-21.01-.48-31.51Zm-43.3 134.16s-.03-.02-.04-.03h.04zM41.14 369v-.04.04m-18.06-27.62v-.11zm31.4-129.94v.01zM16.41 254.8v.02zm32.51 28.09h-.02s.01-.02.02-.03v.02ZM30.18.35s-.07.03-.11.04c.06-.03.11-.06.16-.1-.02.02-.04.04-.05.06"/></svg>